<?xml version="1.0" encoding="utf-8"?>
<!-- Generator: Adobe Illustrator 23.0.2, SVG Export Plug-In . SVG Version: 6.00 Build 0)  -->
<svg version="1.1" id="Layer_1" xmlns="http://www.w3.org/2000/svg" xmlns:xlink="http://www.w3.org/1999/xlink" x="0px" y="0px"
	 width="158px" height="158px" viewBox="0 0 158 158" style="enable-background:new 0 0 158 158;" xml:space="preserve">
<style type="text/css">
	.st0{fill-rule:evenodd;clip-rule:evenodd;fill:url(#SVGID_1_);}
	.st1{fill:#FFFFFF;}
</style>
<g>
	<linearGradient id="SVGID_1_" gradientUnits="userSpaceOnUse" x1="0" y1="79" x2="158" y2="79">
		<stop  offset="0" style="stop-color:#0F76C1"/>
		<stop  offset="1" style="stop-color:#117FC9"/>
	</linearGradient>
	<path class="st0" d="M79,0c43.6,0,79,35.4,79,79s-35.4,79-79,79S0,122.6,0,79S35.4,0,79,0z"/>
	<g>
		<path class="st1" d="M23.3,108.2c2.8-2.6,5.5-5.5,8.7-8.1c4.3-3.5,10.3-3,14.6,1.1c3.6,3.4,6.8,7.1,10.5,10.4
			c9.1,8.3,22.5,5.2,25.4-5.9c1.6-6.1-0.6-11.4-4.7-15.8c-2.9-3.1-5.9-5.9-8.9-8.9c-0.8-0.8-1.7-1.6-2.4-2.5
			c-3.1-4.1-3.3-9.4-0.5-12.3c2.7-2.9,8.4-3.1,12.3,0.1c3.8,3.1,7.1,6.8,10.6,10.2c1.5,1.4,2.9,2.8,4.6,3.9
			c6.2,3.8,13.8,3.3,18.4-1.2c4.9-4.8,5.7-12.2,1.7-18.7c-1.3-2.1-2.9-3.9-4.6-5.7C97.6,43.2,86.1,31.8,74.7,20.4
			c-1.1-1.1-2.1-2.2-3.3-3.5c22.2-4.4,57,8.5,67.9,43.8c9.6,31.1-6.7,65.1-37.1,76.9C70.3,150,36.9,134.9,23.3,108.2z"/>
		<g>
			<defs>
				<path id="SVGID_2_" d="M21.9,103.5c-6.8-14.8-7.6-29-3.1-43.2C25.4,39.7,39.2,26,59.7,18.9c2.8-1,4.6-0.8,6.9,1.5
					c13,13.3,26.3,26.4,39.4,39.6c0.4,0.4,0.8,0.8,1.2,1.2c3.9,4.4,4.3,10.3,0.8,13.7c-3.4,3.3-9.1,3.1-13.3-0.8
					c-3.4-3.1-6.4-6.7-9.9-9.7c-2.5-2.1-5.2-4.2-8.2-5.3c-5.4-2.1-10.5-1.2-14.7,3.1c-4.1,4.2-4.6,9.3-2.7,14.5
					c1,2.7,2.9,5.3,4.9,7.5c3.2,3.7,7,6.9,10.2,10.6c3.7,4.2,3.7,10.2,0.5,13.4c-3.3,3.3-9.1,3.3-13.4-0.4c-3.6-3.1-6.8-6.6-10.2-10
					c-7.7-7.6-17.3-7.7-24.8,0C24.6,99.4,23.3,101.6,21.9,103.5z"/>
			</defs>
			<use xlink:href="#SVGID_2_"  style="overflow:visible;fill:#FFFFFF;"/>
			<clipPath id="SVGID_3_">
				<use xlink:href="#SVGID_2_"  style="overflow:visible;"/>
			</clipPath>
		</g>
	</g>
</g>
</svg>
